<svg xmlns="http://www.w3.org/2000/svg" width="240.171" height="41.991"><g data-name="Group 2285"><path data-name="Path 4137" d="m0 41.991 9.187-5.263V20.047l15.875-9.9 15.884 9.9v16.677l8.953 5.263V15.512L25.062-.005 0 15.512z" fill="#fd4a1f"/><path data-name="Path 4138" d="m12.62 35.277 4.54-2.6v-8.243l7.845-4.894 7.85 4.894v8.243l4.424 2.6V22.194l-12.274-7.667-12.385 7.667z" fill="#fd4a1f"/><path data-name="Path 4139" d="M68.776 8.967v4.489q0 1.175-.078 2.237t-.12 1.5h.227a4.652 4.652 0 0 1 1.211-1.331 4.872 4.872 0 0 1 1.551-.75 6.676 6.676 0 0 1 1.827-.241 6.931 6.931 0 0 1 2.988.6 4.344 4.344 0 0 1 1.982 1.883 6.834 6.834 0 0 1 .708 3.321V31h-4.32v-9.247a4.368 4.368 0 0 0-.623-2.563 2.215 2.215 0 0 0-1.926-.864 3.194 3.194 0 0 0-2.053.6 3.262 3.262 0 0 0-1.058 1.774 11.229 11.229 0 0 0-.312 2.853V31h-4.322V8.967zm28.4 14.089a10.686 10.686 0 0 1-.531 3.512 6.977 6.977 0 0 1-1.543 2.584 6.524 6.524 0 0 1-2.433 1.593 9.016 9.016 0 0 1-3.207.538 8.45 8.45 0 0 1-3.07-.538 6.7 6.7 0 0 1-2.421-1.593 7.187 7.187 0 0 1-1.579-2.584 10.191 10.191 0 0 1-.559-3.512 9.708 9.708 0 0 1 .935-4.46 6.414 6.414 0 0 1 2.662-2.775 8.438 8.438 0 0 1 4.121-.949 8.031 8.031 0 0 1 3.944.949 6.727 6.727 0 0 1 2.697 2.779 9.3 9.3 0 0 1 .987 4.456zm-10.946 0a8.694 8.694 0 0 0 .34 2.62 3.1 3.1 0 0 0 1.062 1.6 3.072 3.072 0 0 0 1.883.538 3.016 3.016 0 0 0 1.862-.538 3.08 3.08 0 0 0 1.048-1.6 8.867 8.867 0 0 0 .333-2.62 8.708 8.708 0 0 0-.333-2.613 2.978 2.978 0 0 0-1.055-1.565 3.132 3.132 0 0 0-1.883-.524 2.753 2.753 0 0 0-2.485 1.175 6.49 6.49 0 0 0-.769 3.527zm28.317-7.887L114.55 31h-3.313l-.581-2.025h-.227a4.354 4.354 0 0 1-1.273 1.317 5.542 5.542 0 0 1-1.685.75 7.524 7.524 0 0 1-1.912.241 6.8 6.8 0 0 1-2.959-.6 4.329 4.329 0 0 1-1.961-1.876 6.849 6.849 0 0 1-.7-3.313V15.169h4.319v9.247a4.447 4.447 0 0 0 .609 2.563 2.208 2.208 0 0 0 1.94.864 3.218 3.218 0 0 0 2.067-.6 3.226 3.226 0 0 0 1.055-1.77 11.478 11.478 0 0 0 .3-2.853v-7.448zM129.402 26.3a4.726 4.726 0 0 1-.758 2.726 4.632 4.632 0 0 1-2.258 1.684 10.551 10.551 0 0 1-3.738.573 16.321 16.321 0 0 1-2.84-.212 11.7 11.7 0 0 1-2.386-.708v-3.569a16.747 16.747 0 0 0 2.77.956 10.751 10.751 0 0 0 2.6.375 3.288 3.288 0 0 0 1.8-.375 1.146 1.146 0 0 0 .545-.984 1.231 1.231 0 0 0-.219-.715 2.878 2.878 0 0 0-.942-.722 24.869 24.869 0 0 0-2.266-1.055 14.679 14.679 0 0 1-2.443-1.26 4.164 4.164 0 0 1-1.416-1.508 4.72 4.72 0 0 1-.46-2.216 3.688 3.688 0 0 1 1.706-3.306 8.267 8.267 0 0 1 4.567-1.112 12.925 12.925 0 0 1 2.811.3 13.74 13.74 0 0 1 2.754.949l-1.3 3.115a22.452 22.452 0 0 0-2.216-.835 7.049 7.049 0 0 0-2.117-.326 3.148 3.148 0 0 0-1.43.255.83.83 0 0 0-.481.779 1.032 1.032 0 0 0 .248.68 3.145 3.145 0 0 0 .963.658q.715.361 2.1.927a16.846 16.846 0 0 1 2.336 1.154 4.445 4.445 0 0 1 1.529 1.487 4.351 4.351 0 0 1 .541 2.285zm9.173-11.427a7.955 7.955 0 0 1 3.781.843 5.849 5.849 0 0 1 2.45 2.443 8.134 8.134 0 0 1 .864 3.908v2.1h-10.211a4.148 4.148 0 0 0 1.1 2.867 3.826 3.826 0 0 0 2.853 1.041 11.563 11.563 0 0 0 2.775-.312 14.123 14.123 0 0 0 2.591-.935v3.337a10.307 10.307 0 0 1-2.457.85 15.379 15.379 0 0 1-3.109.268 9.644 9.644 0 0 1-4.213-.878 6.5 6.5 0 0 1-2.875-2.676 8.941 8.941 0 0 1-1.04-4.529 10.129 10.129 0 0 1 .942-4.623 6.371 6.371 0 0 1 2.626-2.777 8 8 0 0 1 3.923-.928zm.028 3.073a2.871 2.871 0 0 0-2.089.807 3.819 3.819 0 0 0-.956 2.535h6.061a4.348 4.348 0 0 0-.347-1.713 2.722 2.722 0 0 0-.991-1.189 2.966 2.966 0 0 0-1.678-.442zm14.171-8.978v5.126q0 .892-.05 1.77t-.12 1.359h.17a5.454 5.454 0 0 1 1.7-1.664 5.11 5.11 0 0 1 2.79-.687 5.261 5.261 0 0 1 4.319 2.082q1.657 2.082 1.657 6.1a11.823 11.823 0 0 1-.765 4.538 6 6 0 0 1-2.139 2.764 5.557 5.557 0 0 1-3.186.927 5.193 5.193 0 0 1-2.747-.623 6.316 6.316 0 0 1-1.628-1.4h-.3l-.72 1.74h-3.3V8.967zm3.1 9.36a3.077 3.077 0 0 0-1.8.467 2.645 2.645 0 0 0-.97 1.4 8.294 8.294 0 0 0-.333 2.365v.467a7.408 7.408 0 0 0 .68 3.533 3.455 3.455 0 0 0 2.481 1.226 2.406 2.406 0 0 0 2.117-1.232 6.636 6.636 0 0 0 .786-3.554 6.287 6.287 0 0 0-.793-3.5 2.482 2.482 0 0 0-2.166-1.173zm16.692-3.483a7.549 7.549 0 0 1 4.885 1.388 5.128 5.128 0 0 1 1.7 4.22L179.153 31h-3.016l-.835-2.152h-.11a8.023 8.023 0 0 1-1.388 1.388 4.761 4.761 0 0 1-1.628.793 8.486 8.486 0 0 1-2.237.255 5.7 5.7 0 0 1-2.513-.538 3.984 3.984 0 0 1-1.754-1.646 5.623 5.623 0 0 1-.637-2.825 4.172 4.172 0 0 1 1.77-3.717 10.226 10.226 0 0 1 5.31-1.324l2.747-.085v-.694a2.329 2.329 0 0 0-.651-1.827 2.63 2.63 0 0 0-1.812-.581 7.92 7.92 0 0 0-2.251.326 17.453 17.453 0 0 0-2.209.821l-1.43-2.917a12.257 12.257 0 0 1 2.825-1.048 13.583 13.583 0 0 1 3.234-.386zm2.294 8.822-1.668.055a4.787 4.787 0 0 0-2.91.75 2.283 2.283 0 0 0-.814 1.827 1.618 1.618 0 0 0 .581 1.409 2.536 2.536 0 0 0 1.515.418 3.471 3.471 0 0 0 2.344-.821 2.913 2.913 0 0 0 .956-2.336zM193.892 31h-12.5v-2.549l7.335-9.983h-6.9v-3.3h11.81v2.8l-7.139 9.732h7.394zm8.89-16.157a7.549 7.549 0 0 1 4.885 1.388 5.128 5.128 0 0 1 1.7 4.22V31h-3.016l-.835-2.152h-.113a8.023 8.023 0 0 1-1.391 1.387 4.761 4.761 0 0 1-1.628.793 8.486 8.486 0 0 1-2.237.255 5.7 5.7 0 0 1-2.513-.538 3.984 3.984 0 0 1-1.749-1.65 5.623 5.623 0 0 1-.637-2.825 4.172 4.172 0 0 1 1.77-3.717 10.226 10.226 0 0 1 5.31-1.324l2.747-.085v-.694a2.329 2.329 0 0 0-.651-1.827 2.63 2.63 0 0 0-1.812-.581 7.92 7.92 0 0 0-2.251.326 17.453 17.453 0 0 0-2.209.821l-1.43-2.917a12.256 12.256 0 0 1 2.825-1.048 13.583 13.583 0 0 1 3.233-.381zm2.294 8.822-1.671.057a4.787 4.787 0 0 0-2.91.75 2.283 2.283 0 0 0-.814 1.827 1.618 1.618 0 0 0 .581 1.409 2.536 2.536 0 0 0 1.515.418 3.471 3.471 0 0 0 2.344-.821 2.913 2.913 0 0 0 .956-2.336zm14.5-8.822a7.549 7.549 0 0 1 4.885 1.388 5.128 5.128 0 0 1 1.7 4.22L226.16 31h-3.016l-.835-2.152h-.117a8.023 8.023 0 0 1-1.388 1.388 4.761 4.761 0 0 1-1.628.793 8.486 8.486 0 0 1-2.237.255 5.7 5.7 0 0 1-2.513-.538 3.984 3.984 0 0 1-1.749-1.65 5.623 5.623 0 0 1-.637-2.825 4.172 4.172 0 0 1 1.77-3.717 10.226 10.226 0 0 1 5.31-1.324l2.747-.085v-.694a2.329 2.329 0 0 0-.651-1.827 2.63 2.63 0 0 0-1.812-.581 7.92 7.92 0 0 0-2.251.326 17.453 17.453 0 0 0-2.209.821l-1.43-2.917a12.256 12.256 0 0 1 2.825-1.048 13.583 13.583 0 0 1 3.232-.382zm2.294 8.822-1.678.057a4.787 4.787 0 0 0-2.91.75 2.283 2.283 0 0 0-.814 1.827 1.618 1.618 0 0 0 .581 1.409 2.536 2.536 0 0 0 1.515.418 3.471 3.471 0 0 0 2.344-.821 2.913 2.913 0 0 0 .956-2.336zm16.848-8.793q.326 0 .758.035a5.844 5.844 0 0 1 .7.092l-.326 4.05a2.8 2.8 0 0 0-.6-.106q-.389-.035-.673-.035a6.187 6.187 0 0 0-1.621.212 4.041 4.041 0 0 0-1.409.687 3.281 3.281 0 0 0-.984 1.246 4.443 4.443 0 0 0-.371 1.89V31h-4.319V15.169h3.271l.637 2.662h.212a6.7 6.7 0 0 1 1.168-1.48 5.61 5.61 0 0 1 1.6-1.076 4.7 4.7 0 0 1 1.952-.403z" fill="#484848"/></g></svg>